<svg width="98" height="20" viewBox="0 0 98 20" fill="none" xmlns="http://www.w3.org/2000/svg">
<path d="M29.5029 6.23615C30.7689 6.25469 31.7877 6.56373 32.549 7.17255C33.3371 7.79373 33.8666 8.66523 34.1406 9.78089L34.1674 9.89008L34.1118 9.89935L32.1977 10.2032L32.1545 10.2105L32.1277 10.126C31.932 9.51408 31.6136 9.03094 31.1738 8.67142L31.1717 8.66936C30.7493 8.32013 30.2126 8.13677 29.5533 8.12544H29.4895H29.4884C28.791 8.11617 28.2203 8.2676 27.7702 8.57252C27.3169 8.87951 26.9718 9.3132 26.738 9.87669C26.5082 10.4422 26.3918 11.1067 26.3918 11.8731C26.3918 12.6395 26.5082 13.3019 26.738 13.8623C26.9666 14.4155 27.3087 14.8441 27.763 15.151C28.2193 15.457 28.7941 15.6177 29.4915 15.627C30.0149 15.6321 30.4671 15.5384 30.8534 15.3499L30.9245 15.3128C31.2778 15.1212 31.5693 14.8441 31.8001 14.4804C32.0298 14.1137 32.1916 13.6584 32.2822 13.1114H30.4269V11.5115H34.3827L34.394 11.6022C34.4043 11.6856 34.4115 11.8051 34.4167 11.9586C34.4218 12.1101 34.4239 12.2028 34.4239 12.2347C34.4239 13.2381 34.2271 14.1353 33.8316 14.9254L33.8151 14.9594C33.4133 15.7537 32.8344 16.378 32.0793 16.8312C31.3468 17.2711 30.4774 17.4957 29.4751 17.5091H29.3772C28.6767 17.5091 28.0164 17.3875 27.3993 17.1413C26.7864 16.8899 26.2455 16.5232 25.7789 16.0411C25.3153 15.5569 24.9548 14.9667 24.6941 14.2713C24.4335 13.5687 24.3037 12.7693 24.3037 11.8752C24.3037 10.7018 24.5221 9.69332 24.9651 8.85478C25.406 8.01315 26.0117 7.36622 26.7822 6.9181C27.5518 6.46587 28.4181 6.24027 29.3793 6.24027H29.5029V6.23615ZM50.5169 8.89187C51.3255 8.90423 52.0219 9.10202 52.5978 9.49141C53.1963 9.88802 53.6392 10.4484 53.9267 11.1685C54.2141 11.8896 54.3202 12.7343 54.2511 13.6996L54.2439 13.7954H48.4988C48.5668 14.2991 48.7254 14.7019 48.9696 15.0079C49.3003 15.4209 49.7844 15.6332 50.4386 15.6332H50.5169C50.9052 15.6208 51.2359 15.5291 51.513 15.3602C51.8138 15.1747 52.0466 14.9079 52.2104 14.5567L52.2485 14.4763L54.1996 15.0666L54.1553 15.1727C53.8514 15.8886 53.3838 16.4521 52.7533 16.859L52.6987 16.8941C52.0683 17.2907 51.3729 17.4946 50.6147 17.507H50.5416C49.7195 17.507 48.9933 17.3298 48.3659 16.9703C47.7396 16.6118 47.2492 16.1132 46.8959 15.4776C46.5467 14.8399 46.3746 14.1096 46.3746 13.2885C46.3746 12.4675 46.5343 11.6815 46.8557 11.0377L46.8866 10.9759C47.2297 10.3155 47.7076 9.80149 48.3196 9.43682L48.3772 9.40282C48.9768 9.06081 49.6649 8.89084 50.4375 8.89084H50.5158L50.5169 8.89187ZM68.9812 8.89084C69.6776 8.89084 70.2967 9.00106 70.8365 9.22357L70.888 9.24521L70.9395 9.26787C71.4763 9.51099 71.878 9.89832 72.1407 10.4299C72.289 10.7204 72.3787 11.0202 72.4096 11.3292C72.4394 11.6238 72.4539 11.9442 72.4539 12.2914V17.2845H70.6913V16.3965C70.4337 16.688 70.1505 16.9208 69.8414 17.0949H69.8393V17.096C69.3428 17.372 68.7278 17.506 67.9985 17.506C67.4103 17.506 66.9055 17.3957 66.4893 17.1691L66.4862 17.167C66.0752 16.9373 65.7589 16.6324 65.5426 16.2523V16.2512C65.3448 15.8948 65.2408 15.5054 65.2284 15.0841V14.9996C65.2274 14.604 65.2933 14.2466 65.4272 13.9272C65.5611 13.6017 65.7682 13.3225 66.0463 13.0918C66.3245 12.8548 66.6809 12.6653 67.1125 12.52C67.4329 12.416 67.8058 12.3233 68.2303 12.2398L68.2457 12.2368C68.6804 12.1523 69.1491 12.0761 69.6519 12.007C69.9269 11.9669 70.2092 11.9257 70.4976 11.8824C70.4595 11.5517 70.3606 11.3014 70.2081 11.1252L70.1752 11.0892C69.9671 10.8728 69.6127 10.7461 69.0884 10.7317H68.9812C68.6392 10.7307 68.3075 10.81 67.9871 10.9697C67.6812 11.1232 67.4638 11.3859 67.3382 11.7722L67.3062 11.869L67.2094 11.8381L65.5385 11.3137L65.4901 11.2983L65.5189 11.2015C65.7218 10.5082 66.1071 9.9488 66.6747 9.52747L66.6778 9.52438C67.2568 9.09893 68.0283 8.89187 68.9812 8.89187V8.89084ZM97.9315 17.2855H96.1545V16.8199C96.104 16.8601 96.0525 16.8982 95.9989 16.9353C95.4519 17.3185 94.7782 17.507 93.985 17.507C93.234 17.507 92.5737 17.3175 92.0092 16.9363C91.4467 16.5562 91.012 16.0401 90.705 15.39C90.4073 14.7606 90.2548 14.055 90.2456 13.2751V13.1999C90.2456 12.3851 90.396 11.6547 90.6999 11.0129L90.705 11.0016C91.0171 10.3516 91.4601 9.83754 92.0318 9.46257L92.0864 9.42754C92.6489 9.07008 93.3051 8.8929 94.0509 8.8929H94.123C94.8277 8.90423 95.4313 9.0742 95.932 9.409V6.45866H97.9305V17.2865L97.9315 17.2855ZM37.537 17.2855H35.5529V9.11335H37.537V17.2855ZM40.4739 9.14734L40.4863 9.18237L42.3952 14.6772L44.2968 9.18237L44.3205 9.11335H46.3262L43.3872 17.2103L43.4119 17.235H43.379L43.3604 17.2865H41.431L41.4062 17.2186L38.4641 9.11438H40.4626L40.475 9.14837L40.4739 9.14734ZM88.9795 17.2855H86.9954V9.11335H88.9795V17.2855ZM66.0278 8.33044H62.5902V17.2855H60.6061V8.33044H57.1685V6.45763H66.0268V8.33044H66.0278ZM82.5936 8.9135C83.495 8.9135 84.1996 9.18649 84.691 9.74483C85.1834 10.2939 85.4255 11.014 85.4255 11.8937V17.2855H83.4414V12.3439C83.4414 11.8154 83.3106 11.4178 83.0623 11.1366H83.0613C82.813 10.8512 82.4762 10.706 82.0394 10.706C81.7705 10.706 81.5336 10.7688 81.3245 10.8914C81.1174 11.0088 80.9516 11.185 80.8269 11.425C80.7033 11.6588 80.6394 11.9411 80.6394 12.2769V17.2855H78.6626V12.3655C78.6626 11.8257 78.5317 11.4209 78.2824 11.1355C78.0424 10.8605 77.7169 10.7152 77.2945 10.706H77.2533C76.8299 10.706 76.4972 10.8481 76.2438 11.1293L76.2386 11.1355C75.9883 11.4229 75.8585 11.8 75.8585 12.2769V17.2855H73.86V9.11335H75.637V9.80767C75.8358 9.6037 76.0656 9.4296 76.3252 9.28847C76.7795 9.03815 77.2863 8.91453 77.8426 8.91453C78.4514 8.91453 78.9685 9.04536 79.3878 9.31423L79.4259 9.33895C79.7319 9.53674 79.9801 9.78913 80.1676 10.0941C80.4138 9.75616 80.7239 9.48523 81.0978 9.28229C81.547 9.03712 82.0456 8.91556 82.5926 8.91556L82.5936 8.9135ZM70.478 13.5471C70.2195 13.5883 69.9846 13.6264 69.7724 13.6615C69.3902 13.7253 69.0616 13.7861 68.7886 13.8448H68.7876C68.5156 13.8984 68.2756 13.9592 68.0696 14.0261C67.8707 14.0972 67.7059 14.1796 67.572 14.2713C67.4401 14.363 67.3402 14.465 67.2702 14.5793C67.2073 14.6885 67.1744 14.8204 67.1744 14.9759V15.0089C67.1805 15.1727 67.2238 15.3169 67.3042 15.4426L67.3206 15.4663C67.4061 15.5847 67.5277 15.6836 67.6905 15.7599C67.8646 15.8402 68.085 15.8825 68.3549 15.8825C68.7464 15.8825 69.0739 15.8134 69.3418 15.6795C69.6168 15.5425 69.8301 15.3767 69.9867 15.183H69.9877C70.1546 14.9811 70.2617 14.7987 70.3153 14.6329V14.6298V14.6267V14.6246C70.4028 14.4114 70.4533 14.1662 70.4626 13.886V13.884C70.4688 13.7603 70.4729 13.647 70.477 13.544L70.478 13.5471ZM94.3167 10.6905C93.8573 10.6905 93.4874 10.8038 93.199 11.0232C92.9064 11.2416 92.6891 11.5393 92.5479 11.9205L92.5222 11.9926C92.3965 12.3542 92.3337 12.756 92.3337 13.1979V13.2865C92.3429 13.7274 92.412 14.1271 92.5407 14.4887L92.5685 14.5597L92.5953 14.6236C92.7344 14.9378 92.9291 15.1892 93.1784 15.3818C93.4565 15.5961 93.814 15.7073 94.259 15.7073C94.704 15.7073 95.08 15.6023 95.3479 15.4034L95.3984 15.3633C95.6487 15.1593 95.8341 14.8832 95.9536 14.5309V14.5288C96.0783 14.1724 96.1452 13.7614 96.1535 13.2937V13.1999V13.1041L96.1514 13.0166C96.137 12.5808 96.07 12.1986 95.9536 11.869V11.8659C95.8259 11.4899 95.6281 11.2035 95.3623 11.0016H95.3613L95.3108 10.9635C95.0718 10.7956 94.7689 10.7029 94.3981 10.6915H94.3177L94.3167 10.6905ZM50.5117 10.6534C49.8081 10.6534 49.3023 10.8708 48.9727 11.289L48.9696 11.2931C48.7749 11.5393 48.6337 11.8566 48.5503 12.2471H52.2248C52.161 11.8257 52.0446 11.4981 51.8797 11.2581L51.8447 11.2097C51.5697 10.845 51.1329 10.6534 50.5107 10.6534H50.5117ZM37.537 8.10895H35.5529V6.2722H37.537V8.10895ZM88.9795 8.10895H86.9954V6.2722H88.9795V8.10895Z" fill="#98A350"/>
<path d="M13.3215 9.48584C13.3937 9.63027 13.4125 9.67423 13.4764 9.85949C13.4921 9.90345 13.5078 9.94636 13.5245 9.99136L15.9705 9.14882C15.8491 8.79506 15.7057 8.45176 15.5403 8.12207L13.2314 9.29954C13.2628 9.36129 13.2932 9.42409 13.3225 9.48689L13.3215 9.48584Z" fill="#98A350"/>
<path d="M5.20702 16.5983C4.99455 16.4706 4.79255 16.3304 4.59578 16.1661L2.96094 18.1107C3.42564 18.4969 3.93536 18.8329 4.47856 19.1103L5.63091 16.8401C5.48543 16.7658 5.34518 16.6842 5.20597 16.5983H5.20702Z" fill="#98A350"/>
<path d="M8.19934 17.459C8.10619 17.459 8.01409 17.4569 7.92303 17.4517L7.78906 19.9908C7.89059 19.995 7.99106 19.9992 8.09363 20.0002H8.19934C8.62742 20.0002 9.04817 19.9678 9.45845 19.905L9.06073 17.3941C8.77918 17.437 8.4924 17.46 8.1983 17.46H8.19934V17.459Z" fill="#98A350"/>
<path d="M12.6923 8.43345L14.7646 6.87082C14.5417 6.57358 14.2978 6.29203 14.0361 6.02618L12.1982 7.86408C12.3751 8.04201 12.5394 8.23145 12.6912 8.4324L12.6923 8.43345Z" fill="#98A350"/>
<path d="M6.10771 17.0612L5.15527 19.4182C5.71104 19.6401 6.29715 19.8034 6.9063 19.8997L7.30088 17.3878C7.01829 17.3428 6.74302 17.2758 6.47613 17.19C6.35263 17.1512 6.22912 17.1094 6.10876 17.0612H6.10771Z" fill="#98A350"/>
<path d="M9.67097 17.2654L10.3314 19.7218C10.8756 19.5753 11.399 19.3754 11.8919 19.1252L10.7364 16.8561C10.3994 17.0267 10.0425 17.1639 9.66992 17.2643H9.67097V17.2654Z" fill="#98A350"/>
<path d="M16.3161 10.5732L13.7676 10.9793C13.8094 11.2557 13.8314 11.5382 13.8314 11.8261H16.4062V11.7957C16.4062 11.3802 16.3748 10.972 16.3151 10.5743L16.3161 10.5732Z" fill="#98A350"/>
<path d="M13.1622 14.5189C13.0042 14.8255 12.912 14.9564 12.6954 15.2316L12.6504 15.2976L14.6537 16.8602C14.9697 16.4583 15.2492 16.025 15.4878 15.5665L13.2177 14.4131L13.1643 14.5168H13.1632L13.1622 14.5189Z" fill="#98A350"/>
<path d="M13.5273 13.6475L15.9635 14.4384C16.1143 14.004 16.2202 13.607 16.2966 13.1433L13.7574 12.7424C13.7061 13.0585 13.6476 13.3027 13.5451 13.5979L13.5273 13.6475Z" fill="#98A350"/>
<path d="M11.3566 16.4906L12.78 18.6038C13.206 18.317 13.6037 17.9905 13.9659 17.6315L12.1583 15.8292C11.9113 16.073 11.6434 16.296 11.3545 16.4906H11.3555H11.3566Z" fill="#98A350"/>
<path d="M12.6078 4.8229L7.77128 0L5.98153 1.78556L7.81838 3.61718C6.62312 3.66846 5.4781 3.96989 4.41576 4.51729C1.69241 5.95537 0 8.75617 0 11.828C0 13.6932 0.61019 15.4546 1.76463 16.921L1.78242 16.9482C1.96454 17.1732 2.16131 17.392 2.36854 17.5982L2.39366 17.6233L4.21376 15.8032L4.19283 15.7843H4.19178C3.13468 14.7262 2.55275 13.3185 2.55275 11.8239C2.55275 9.23029 4.31319 6.98735 6.83768 6.37088C7.09306 6.3039 7.35681 6.2547 7.6237 6.2233L5.89989 7.94188L7.68964 9.72745L10.8243 6.60009L12.6067 4.82186H12.6078V4.8229Z" fill="#98A350"/>
</svg>
